<?xml version="1.0" encoding="utf-8"?>
<!-- Generator: Adobe Illustrator 17.0.0, SVG Export Plug-In . SVG Version: 6.00 Build 0)  -->
<!DOCTYPE svg PUBLIC "-//W3C//DTD SVG 1.1//EN" "http://www.w3.org/Graphics/SVG/1.1/DTD/svg11.dtd">
<svg version="1.1" id="Layer_1" xmlns="http://www.w3.org/2000/svg" xmlns:xlink="http://www.w3.org/1999/xlink" x="0px" y="0px"
	 width="65.833px" height="34.5px" viewBox="0 0 65.833 34.5" enable-background="new 0 0 65.833 34.5" xml:space="preserve">
<g>
	<g>
		<path fill="#2A2A2A" d="M62.833,3v28.5H3V3H62.833 M65.833,0H0v34.5h65.833V0L65.833,0z"/>
	</g>
	<g>
		<path fill="#2A2A2A" d="M0,12.375v-3c5.169,0,9.375-4.206,9.375-9.375h3C12.375,6.824,6.824,12.375,0,12.375z"/>
	</g>
	<g>
		<path fill="#2A2A2A" d="M65.833,12.375C59.01,12.375,53.458,6.824,53.458,0h3c0,5.169,4.206,9.375,9.375,9.375V12.375z"/>
	</g>
	<g>
		<path fill="#2A2A2A" d="M56.458,34.5h-3c0-6.823,5.552-12.375,12.375-12.375v3C60.664,25.125,56.458,29.331,56.458,34.5z"/>
	</g>
	<g>
		<path fill="#2A2A2A" d="M12.375,34.5h-3c0-5.169-4.206-9.375-9.375-9.375v-3C6.824,22.125,12.375,27.677,12.375,34.5z"/>
	</g>
	<g>
		<g>
			<path fill="#2A2A2A" d="M28.069,13.664c0,1.958-0.494,3.461-1.481,4.507c-0.988,1.047-2.415,1.57-4.28,1.57h-0.857v6.682h-3.429
				V7.991h4.677C26.278,7.991,28.069,9.882,28.069,13.664z M21.45,16.766h0.656c0.84,0,1.466-0.231,1.878-0.693
				s0.618-1.219,0.618-2.27c0-0.966-0.189-1.683-0.567-2.15c-0.378-0.466-0.962-0.7-1.752-0.7h-0.832L21.45,16.766L21.45,16.766z"/>
		</g>
		<g>
			<path fill="#2A2A2A" d="M30.389,26.423V7.991h3.429v15.431h4.753v3.001C38.571,26.423,30.389,26.423,30.389,26.423z"/>
		</g>
		<g>
			<path fill="#2A2A2A" d="M49.162,21.342c0,1.724-0.436,3.043-1.307,3.959c-0.869,0.916-2.123,1.374-3.762,1.374
				c-1.606,0-2.972-0.315-4.098-0.945v-3.392c1.378,0.899,2.643,1.349,3.795,1.349c0.654,0,1.148-0.18,1.48-0.542
				c0.332-0.361,0.498-0.853,0.498-1.475c0-0.613-0.197-1.175-0.592-1.684c-0.396-0.508-1.047-1.073-1.955-1.695
				c-0.79-0.546-1.389-1.069-1.796-1.569c-0.408-0.501-0.723-1.062-0.945-1.684c-0.223-0.622-0.334-1.345-0.334-2.168
				c0-1.58,0.439-2.833,1.317-3.757c0.878-0.925,2.057-1.387,3.536-1.387c1.412,0,2.77,0.396,4.072,1.186l-1.135,2.748
				c-0.402-0.235-0.824-0.445-1.266-0.63c-0.441-0.185-0.914-0.277-1.42-0.277c-0.555,0-0.98,0.183-1.279,0.548
				c-0.299,0.366-0.447,0.864-0.447,1.494c0,0.622,0.18,1.165,0.535,1.626c0.357,0.462,0.982,0.988,1.873,1.576
				c1.201,0.808,2.041,1.631,2.516,2.472C48.924,19.308,49.162,20.267,49.162,21.342z"/>
		</g>
	</g>
</g>
</svg>
