<?xml version="1.0" encoding="utf-8"?>
<!-- Generator: Adobe Illustrator 17.0.0, SVG Export Plug-In . SVG Version: 6.00 Build 0)  -->
<!DOCTYPE svg PUBLIC "-//W3C//DTD SVG 1.1//EN" "http://www.w3.org/Graphics/SVG/1.1/DTD/svg11.dtd">
<svg version="1.1" id="Layer_1" xmlns="http://www.w3.org/2000/svg" xmlns:xlink="http://www.w3.org/1999/xlink" x="0px" y="0px"
	 width="65.833px" height="34.5px" viewBox="20.375 19.75 65.833 34.5" enable-background="new 20.375 19.75 65.833 34.5"
	 xml:space="preserve">
<g>
	<path fill="#26A65B" d="M83.208,22.75v28.5H23.375v-28.5H83.208 M86.208,19.75H20.375v34.5h65.833V19.75L86.208,19.75z"/>
</g>
<g>
	<path fill="#26A65B" d="M20.375,32.125v-3c5.169,0,9.375-4.206,9.375-9.375h3C32.75,26.574,27.199,32.125,20.375,32.125z"/>
</g>
<g>
	<path fill="#26A65B" d="M86.208,32.125c-6.823,0-12.375-5.551-12.375-12.375h3c0,5.169,4.206,9.375,9.375,9.375V32.125z"/>
</g>
<g>
	<path fill="#26A65B" d="M76.833,54.25h-3c0-6.823,5.552-12.375,12.375-12.375v3C81.039,44.875,76.833,49.081,76.833,54.25z"/>
</g>
<g>
	<path fill="#26A65B" d="M32.75,54.25h-3c0-5.169-4.206-9.375-9.375-9.375v-3C27.199,41.875,32.75,47.427,32.75,54.25z"/>
</g>
<g>
	<path fill="#26A65B" d="M39.074,38.925c0,0.801-0.202,1.414-0.606,1.84s-0.987,0.639-1.749,0.639c-0.746,0-1.381-0.146-1.904-0.439
		v-1.576c0.641,0.418,1.229,0.627,1.764,0.627c0.305,0,0.534-0.084,0.688-0.252s0.231-0.396,0.231-0.686
		c0-0.285-0.092-0.546-0.275-0.782s-0.486-0.499-0.908-0.788c-0.367-0.254-0.646-0.497-0.835-0.729s-0.336-0.493-0.439-0.782
		s-0.155-0.625-0.155-1.008c0-0.734,0.204-1.316,0.612-1.746s0.956-0.645,1.644-0.645c0.656,0,1.287,0.184,1.893,0.551l-0.527,1.277
		c-0.188-0.109-0.384-0.207-0.589-0.293s-0.425-0.129-0.659-0.129c-0.258,0-0.456,0.085-0.595,0.255s-0.208,0.401-0.208,0.694
		c0,0.289,0.083,0.541,0.249,0.756s0.456,0.459,0.87,0.732c0.559,0.375,0.948,0.758,1.169,1.148S39.074,38.425,39.074,38.925z"/>
	<path fill="#26A65B" d="M45.396,32.72v5.543c0,1.02-0.23,1.798-0.691,2.335s-1.127,0.806-1.998,0.806c-0.852,0-1.5-0.267-1.945-0.8
		s-0.668-1.321-0.668-2.364v-5.52h1.582v5.637c0,1.09,0.361,1.635,1.084,1.635c0.336,0,0.596-0.139,0.779-0.416
		s0.275-0.672,0.275-1.184V32.72H45.396z"/>
	<path fill="#26A65B" d="M49.714,33.991c-0.457,0-0.817,0.268-1.081,0.803s-0.396,1.279-0.396,2.232
		c0,1.984,0.518,2.977,1.553,2.977c0.453,0,0.928-0.145,1.424-0.434v1.418c-0.418,0.277-0.953,0.416-1.605,0.416
		c-0.965,0-1.706-0.384-2.224-1.151s-0.776-1.847-0.776-3.237s0.267-2.475,0.8-3.252s1.274-1.166,2.224-1.166
		c0.313,0,0.612,0.043,0.899,0.129s0.595,0.236,0.923,0.451l-0.527,1.295c-0.176-0.121-0.363-0.231-0.563-0.331
		S49.949,33.991,49.714,33.991z"/>
	<path fill="#26A65B" d="M55.087,33.991c-0.457,0-0.817,0.268-1.081,0.803s-0.396,1.279-0.396,2.232
		c0,1.984,0.518,2.977,1.553,2.977c0.453,0,0.928-0.145,1.424-0.434v1.418c-0.418,0.277-0.953,0.416-1.605,0.416
		c-0.965,0-1.706-0.384-2.224-1.151s-0.776-1.847-0.776-3.237s0.267-2.475,0.8-3.252s1.274-1.166,2.224-1.166
		c0.313,0,0.612,0.043,0.899,0.129s0.595,0.236,0.923,0.451L56.3,34.472c-0.176-0.121-0.363-0.231-0.563-0.331
		S55.322,33.991,55.087,33.991z"/>
	<path fill="#26A65B" d="M61.662,41.286H57.8V32.72h3.861v1.377h-2.268v2.039h2.104v1.383h-2.104v2.373h2.268V41.286z"/>
	<path fill="#26A65B" d="M66.812,38.925c0,0.801-0.202,1.414-0.606,1.84s-0.987,0.639-1.749,0.639c-0.746,0-1.381-0.146-1.904-0.439
		v-1.576c0.641,0.418,1.229,0.627,1.764,0.627c0.305,0,0.534-0.084,0.688-0.252s0.231-0.396,0.231-0.686
		c0-0.285-0.092-0.546-0.275-0.782s-0.486-0.499-0.908-0.788c-0.367-0.254-0.646-0.497-0.835-0.729s-0.336-0.493-0.439-0.782
		s-0.155-0.625-0.155-1.008c0-0.734,0.204-1.316,0.612-1.746s0.956-0.645,1.644-0.645c0.656,0,1.287,0.184,1.893,0.551l-0.527,1.277
		c-0.188-0.109-0.384-0.207-0.589-0.293s-0.425-0.129-0.659-0.129c-0.258,0-0.456,0.085-0.595,0.255s-0.208,0.401-0.208,0.694
		c0,0.289,0.083,0.541,0.249,0.756s0.456,0.459,0.87,0.732c0.559,0.375,0.948,0.758,1.169,1.148S66.812,38.425,66.812,38.925z"/>
	<path fill="#26A65B" d="M71.769,38.925c0,0.801-0.202,1.414-0.606,1.84s-0.987,0.639-1.749,0.639c-0.746,0-1.381-0.146-1.904-0.439
		v-1.576c0.641,0.418,1.229,0.627,1.764,0.627c0.305,0,0.534-0.084,0.688-0.252s0.231-0.396,0.231-0.686
		c0-0.285-0.092-0.546-0.275-0.782s-0.486-0.499-0.908-0.788c-0.367-0.254-0.646-0.497-0.835-0.729s-0.336-0.493-0.439-0.782
		s-0.155-0.625-0.155-1.008c0-0.734,0.204-1.316,0.612-1.746s0.956-0.645,1.644-0.645c0.656,0,1.287,0.184,1.893,0.551l-0.527,1.277
		c-0.188-0.109-0.384-0.207-0.589-0.293s-0.425-0.129-0.659-0.129c-0.258,0-0.456,0.085-0.595,0.255s-0.208,0.401-0.208,0.694
		c0,0.289,0.083,0.541,0.249,0.756s0.456,0.459,0.87,0.732c0.559,0.375,0.948,0.758,1.169,1.148S71.769,38.425,71.769,38.925z"/>
</g>
</svg>
