<?xml version="1.0" encoding="utf-8"?>
<!-- Generator: Adobe Illustrator 17.0.0, SVG Export Plug-In . SVG Version: 6.00 Build 0)  -->
<!DOCTYPE svg PUBLIC "-//W3C//DTD SVG 1.1//EN" "http://www.w3.org/Graphics/SVG/1.1/DTD/svg11.dtd">
<svg version="1.1" id="Layer_1" xmlns="http://www.w3.org/2000/svg" xmlns:xlink="http://www.w3.org/1999/xlink" x="0px" y="0px"
	 width="141.375px" height="134.355px" viewBox="0 0 141.375 134.355" enable-background="new 0 0 141.375 134.355"
	 xml:space="preserve">
<g>
	<path fill="#404040" d="M15.07,34.266L2.297,2.625H2.109c0.125,1.938,0.188,3.922,0.188,5.953v25.688H0V0h3.703l12.141,30.141
		h0.141L28.125,0h3.609v34.266H29.32V8.297c0-1.813,0.094-3.688,0.281-5.625h-0.188l-12.82,31.594H15.07z"/>
	<path fill="#404040" d="M61.898,21.492c0,4.156-1.008,7.402-3.023,9.738s-4.797,3.504-8.344,3.504
		c-2.234,0-4.203-0.539-5.906-1.617s-3.008-2.625-3.914-4.641s-1.359-4.344-1.359-6.984c0-4.156,1.008-7.395,3.023-9.715
		s4.781-3.48,8.297-3.48c3.5,0,6.246,1.176,8.238,3.527S61.898,17.398,61.898,21.492z M41.789,21.492c0,3.5,0.77,6.23,2.309,8.191
		s3.715,2.941,6.527,2.941s4.988-0.98,6.527-2.941s2.309-4.691,2.309-8.191c0-3.516-0.777-6.242-2.332-8.18
		s-3.738-2.906-6.551-2.906s-4.98,0.965-6.504,2.895S41.789,17.961,41.789,21.492z"/>
	<path fill="#404040" d="M86.719,34.266V17.742c0-2.563-0.539-4.426-1.617-5.59s-2.75-1.746-5.016-1.746
		c-3.047,0-5.277,0.77-6.691,2.309s-2.121,4.035-2.121,7.488v14.063h-2.32V8.789h1.969l0.445,3.492h0.141
		c1.656-2.656,4.602-3.984,8.836-3.984c5.781,0,8.672,3.102,8.672,9.305v16.664H86.719z"/>
	<path fill="#404040" d="M107.555,34.734c-3.703,0-6.59-1.141-8.66-3.422s-3.105-5.477-3.105-9.586c0-4.063,1-7.316,3-9.762
		s4.695-3.668,8.086-3.668c3,0,5.367,1.047,7.102,3.141s2.602,4.938,2.602,8.531v1.875H98.227c0.031,3.5,0.848,6.172,2.449,8.016
		s3.895,2.766,6.879,2.766c1.453,0,2.73-0.102,3.832-0.305s2.496-0.641,4.184-1.313v2.109c-1.438,0.625-2.766,1.051-3.984,1.277
		S109.023,34.734,107.555,34.734z M106.875,10.359c-2.453,0-4.422,0.809-5.906,2.426s-2.352,3.949-2.602,6.996h15.75
		c0-2.953-0.641-5.262-1.922-6.926S109.141,10.359,106.875,10.359z"/>
	<path fill="#404040" d="M119.344,8.789h2.391l5.391,14.297c1.641,4.391,2.68,7.352,3.117,8.883h0.141
		c0.656-2.016,1.727-5.023,3.211-9.023l5.391-14.156h2.391l-11.414,29.602c-0.922,2.406-1.695,4.031-2.32,4.875
		s-1.355,1.477-2.191,1.898s-1.848,0.633-3.035,0.633c-0.891,0-1.883-0.164-2.977-0.492V43.29c0.906,0.25,1.883,0.375,2.93,0.375
		c0.797,0,1.5-0.188,2.109-0.563s1.16-0.957,1.652-1.746s1.063-2.039,1.711-3.75s1.066-2.824,1.254-3.34L119.344,8.789z"/>
</g>
<g>
	<path fill="#404040" d="M19.137,49.298c0,2.766-0.864,4.881-2.593,6.346s-4.187,2.197-7.374,2.197H6.833v9.141h-5.45v-25.7h8.209
		c3.117,0,5.487,0.671,7.11,2.013S19.137,46.638,19.137,49.298z M6.833,53.376h1.793c1.676,0,2.93-0.331,3.762-0.993
		s1.248-1.626,1.248-2.892c0-1.277-0.349-2.221-1.046-2.83s-1.79-0.914-3.278-0.914H6.833V53.376z"/>
	<path fill="#404040" d="M23.989,66.981V41.282h5.449v21.199h10.424v4.5H23.989z"/>
	<path fill="#404040" d="M59.497,59.845c0,2.32-0.835,4.148-2.505,5.484c-1.67,1.336-3.993,2.004-6.97,2.004
		c-2.742,0-5.168-0.516-7.277-1.547v-5.063c1.734,0.773,3.202,1.318,4.403,1.635s2.3,0.475,3.296,0.475
		c1.195,0,2.112-0.229,2.751-0.686s0.958-1.137,0.958-2.039c0-0.504-0.141-0.952-0.422-1.345s-0.694-0.771-1.239-1.134
		s-1.655-0.943-3.331-1.74c-1.57-0.738-2.748-1.447-3.533-2.127s-1.412-1.471-1.881-2.373s-0.703-1.957-0.703-3.164
		c0-2.273,0.771-4.061,2.312-5.361s3.671-1.951,6.39-1.951c1.336,0,2.61,0.158,3.823,0.475s2.481,0.762,3.806,1.336l-1.758,4.236
		c-1.371-0.563-2.505-0.955-3.401-1.178s-1.778-0.334-2.646-0.334c-1.031,0-1.822,0.24-2.373,0.721s-0.826,1.107-0.826,1.881
		c0,0.48,0.111,0.899,0.334,1.257s0.577,0.703,1.063,1.037s1.638,0.935,3.454,1.802c2.402,1.148,4.049,2.3,4.939,3.454
		S59.497,58.169,59.497,59.845z"/>
</g>
<g>
	<path fill="#404040" d="M82.499,88.677c0,0,5.275-9.941,20.491-17.448c0,0-8.927-8.724-6.695-16.839s13.39-8.318,13.39-8.318
		s-14.097-4.347-24.128,8.955S74.992,75.896,82.499,88.677z"/>
</g>
<g>
	<path fill="#404040" d="M83.828,102.607c0,0,20.155,1.641,28.489,19.307c0,0-12.787,6.296-17.658,12.441
		c0,0-1.634-12.024-13.33-17.414C81.328,116.941,84.295,109.292,83.828,102.607z"/>
</g>
<g>
	<path fill="#404040" d="M43.188,98.244c0,0,6.662-15.43,5.236-17.776c0,0,15.311,2.828,18.218,12.394s0.318,15.474,0.318,15.474
		S61.037,92.889,43.188,98.244z"/>
</g>
<g>
	<path fill="#404040" d="M59.927,98.65l-8.345,7.574c0,0,10.167,5.858,11.198,8.118c0,0,3.438-3.189,4.036-5.433
		C67.413,106.667,68.753,98.05,59.927,98.65z"/>
</g>
</svg>
