<?xml version="1.0" encoding="utf-8"?>
<!-- Generator: Adobe Illustrator 17.0.0, SVG Export Plug-In . SVG Version: 6.00 Build 0)  -->
<!DOCTYPE svg PUBLIC "-//W3C//DTD SVG 1.0//EN" "http://www.w3.org/TR/2001/REC-SVG-20010904/DTD/svg10.dtd">
<svg version="1.0" id="Layer_1" xmlns="http://www.w3.org/2000/svg" xmlns:xlink="http://www.w3.org/1999/xlink" x="0px" y="0px"
	 width="600px" height="600px" viewBox="0 0 600 600" enable-background="new 0 0 600 600" xml:space="preserve">
<circle fill="none" stroke="#2A2A2A" stroke-width="14" stroke-miterlimit="10" cx="300" cy="300" r="289"/>
<circle fill="none" stroke="#2A2A2A" stroke-width="14" stroke-miterlimit="10" cx="300" cy="102" r="54"/>
<circle fill="none" stroke="#2A2A2A" stroke-width="14" stroke-miterlimit="10" cx="300" cy="498" r="41"/>
<circle fill="none" stroke="#2A2A2A" stroke-width="14" stroke-miterlimit="10" cx="194" cy="461" r="41"/>
<circle fill="none" stroke="#2A2A2A" stroke-width="14" stroke-miterlimit="10" cx="405" cy="461" r="41"/>
<g>
	<g>
		<line fill="none" stroke="#68C3A3" stroke-width="14" stroke-miterlimit="10" x1="299" y1="232" x2="299" y2="180"/>
		<g>
			<polygon fill="#68C3A3" points="323,207.887 299.5,184.139 276,207.887 276,187.734 299.5,164 323,187.734 			"/>
		</g>
	</g>
</g>
<g>
	<g>
		<line fill="none" stroke="#68C3A3" stroke-width="14" stroke-miterlimit="10" x1="191" y1="405" x2="191" y2="367"/>
		<g>
			<polygon fill="#68C3A3" points="215,394.887 191.5,371.139 168,394.887 168,374.734 191.5,351 215,374.734 			"/>
		</g>
	</g>
</g>
<g>
	<g>
		<line fill="none" stroke="#68C3A3" stroke-width="14" stroke-miterlimit="10" x1="404" y1="405" x2="404" y2="367"/>
		<g>
			<polygon fill="#68C3A3" points="428,394.887 404.5,371.139 381,394.887 381,374.734 404.5,351 428,374.734 			"/>
		</g>
	</g>
</g>
<g>
	<g>
		<line fill="none" stroke="#68C3A3" stroke-width="14" stroke-miterlimit="10" x1="299" y1="444" x2="299" y2="366"/>
		<g>
			<polygon fill="#68C3A3" points="323,393.887 299.5,370.139 276,393.887 276,373.734 299.5,350 323,373.734 			"/>
		</g>
	</g>
</g>
<g>
	<g>
		<path fill="#2A2A2A" d="M398.505,244.087v95.826H197.328v-95.826H398.505 M408.592,234H187.241v116h221.352V234L408.592,234z"/>
	</g>
	<g>
		<path fill="#2A2A2A" d="M187.241,275.609v-10.087c17.38,0,31.522-14.142,31.522-31.522h10.087
			C228.849,256.944,210.185,275.609,187.241,275.609z"/>
	</g>
	<g>
		<path fill="#2A2A2A" d="M408.592,275.609c-22.941,0-41.609-18.664-41.609-41.609h10.087c0,17.38,14.142,31.522,31.522,31.522
			V275.609z"/>
	</g>
	<g>
		<path fill="#2A2A2A" d="M377.071,350h-10.087c0-22.941,18.668-41.609,41.609-41.609v10.087
			C391.212,318.478,377.071,332.62,377.071,350z"/>
	</g>
	<g>
		<path fill="#2A2A2A" d="M228.849,350h-10.087c0-17.38-14.142-31.522-31.522-31.522v-10.087
			C210.185,308.391,228.849,327.059,228.849,350z"/>
	</g>
	<g>
		<g>
			<path fill="#2A2A2A" d="M281.618,279.943c0,6.583-1.661,11.637-4.98,15.154c-3.322,3.52-8.12,5.279-14.391,5.279h-2.882v22.467
				h-11.529v-61.974h15.726C275.596,260.868,281.618,267.226,281.618,279.943z M259.362,290.373h2.206
				c2.824,0,4.929-0.777,6.314-2.33c1.385-1.553,2.078-4.099,2.078-7.632c0-3.248-0.635-5.659-1.906-7.229
				c-1.271-1.567-3.235-2.354-5.891-2.354h-2.797L259.362,290.373L259.362,290.373z"/>
		</g>
		<g>
			<path fill="#2A2A2A" d="M289.418,322.843v-61.974h11.529v51.884h15.981v10.09H289.418z"/>
		</g>
		<g>
			<path fill="#2A2A2A" d="M352.539,305.759c0,5.797-1.466,10.232-4.395,13.311c-2.922,3.08-7.138,4.62-12.649,4.62
				c-5.4,0-9.993-1.059-13.779-3.177v-11.405c4.633,3.023,8.887,4.536,12.76,4.536c2.199,0,3.86-0.605,4.976-1.822
				c1.116-1.214,1.674-2.868,1.674-4.959c0-2.061-0.662-3.951-1.991-5.662c-1.331-1.708-3.52-3.608-6.573-5.699
				c-2.656-1.836-4.67-3.594-6.039-5.275c-1.372-1.685-2.431-3.571-3.177-5.662c-0.75-2.091-1.123-4.522-1.123-7.29
				c0-5.312,1.476-9.525,4.428-12.632c2.952-3.11,6.916-4.664,11.889-4.664c4.748,0,9.314,1.331,13.691,3.988l-3.816,9.24
				c-1.352-0.79-2.771-1.496-4.257-2.118c-1.483-0.622-3.073-0.931-4.774-0.931c-1.866,0-3.295,0.615-4.3,1.843
				c-1.005,1.231-1.503,2.905-1.503,5.023c0,2.091,0.605,3.917,1.799,5.467c1.2,1.553,3.302,3.322,6.298,5.299
				c4.038,2.717,6.863,5.484,8.46,8.312C351.739,298.92,352.539,302.144,352.539,305.759z"/>
		</g>
	</g>
</g>
<g>
	<g>
		<path fill="none" stroke="#446CB3" stroke-width="14" stroke-miterlimit="10" d="M138.473,415.961
			c-23.475-32.641-37.3-72.687-37.3-115.961c0-86.368,55.069-159.874,132.01-187.321"/>
		<g>
			<polygon fill="#446CB3" points="140.112,379.355 135.962,412.672 102.647,408.503 115.022,424.409 148.329,428.567 
				152.487,395.26 			"/>
		</g>
	</g>
</g>
<g>
	<g>
		<path fill="none" stroke="#446CB3" stroke-width="14" stroke-miterlimit="10" d="M461.883,415.961
			c23.475-32.641,37.3-72.687,37.3-115.961c0-86.368-55.069-159.874-132.01-187.321"/>
		<g>
			<polygon fill="#446CB3" points="497.71,408.503 464.394,412.672 460.244,379.355 447.869,395.26 452.028,428.567 
				485.334,424.409 			"/>
		</g>
	</g>
</g>
</svg>
