<?xml version="1.0" encoding="utf-8"?>
<!-- Generator: Adobe Illustrator 17.0.0, SVG Export Plug-In . SVG Version: 6.00 Build 0)  -->
<!DOCTYPE svg PUBLIC "-//W3C//DTD SVG 1.1//EN" "http://www.w3.org/Graphics/SVG/1.1/DTD/svg11.dtd">
<svg version="1.1" id="Layer_1" xmlns="http://www.w3.org/2000/svg" xmlns:xlink="http://www.w3.org/1999/xlink" x="0px" y="0px"
	 width="65.833px" height="34.5px" viewBox="20.375 19.75 65.833 34.5" enable-background="new 20.375 19.75 65.833 34.5"
	 xml:space="preserve">
<g>
	<g>
		<path fill="#FFFFFF" d="M83.208,22.75v28.5H23.375v-28.5H83.208 M86.208,19.75H20.375v34.5h65.833V19.75L86.208,19.75z"/>
	</g>
	<g>
		<path fill="#FFFFFF" d="M20.375,32.125v-3c5.169,0,9.375-4.206,9.375-9.375h3C32.75,26.574,27.199,32.125,20.375,32.125z"/>
	</g>
	<g>
		<path fill="#FFFFFF" d="M86.208,32.125c-6.823,0-12.375-5.551-12.375-12.375h3c0,5.169,4.206,9.375,9.375,9.375V32.125z"/>
	</g>
	<g>
		<path fill="#FFFFFF" d="M76.833,54.25h-3c0-6.823,5.552-12.375,12.375-12.375v3C81.039,44.875,76.833,49.081,76.833,54.25z"/>
	</g>
	<g>
		<path fill="#FFFFFF" d="M32.75,54.25h-3c0-5.169-4.206-9.375-9.375-9.375v-3C27.199,41.875,32.75,47.427,32.75,54.25z"/>
	</g>
	<g>
		<g>
			<path fill="#FFFFFF" d="M48.444,33.414c0,1.958-0.494,3.461-1.481,4.507c-0.988,1.047-2.415,1.57-4.28,1.57h-0.857v6.682h-3.429
				V27.741h4.677C46.653,27.741,48.444,29.632,48.444,33.414z M41.825,36.516h0.656c0.84,0,1.466-0.231,1.878-0.693
				s0.618-1.219,0.618-2.27c0-0.966-0.189-1.683-0.567-2.15c-0.378-0.466-0.962-0.7-1.752-0.7h-0.832L41.825,36.516L41.825,36.516z"
				/>
		</g>
		<g>
			<path fill="#FFFFFF" d="M50.764,46.173V27.741h3.429v15.431h4.753v3.001C58.946,46.173,50.764,46.173,50.764,46.173z"/>
		</g>
		<g>
			<path fill="#FFFFFF" d="M69.537,41.092c0,1.724-0.436,3.043-1.307,3.959c-0.869,0.916-2.123,1.374-3.762,1.374
				c-1.606,0-2.972-0.315-4.098-0.945v-3.392c1.378,0.899,2.643,1.349,3.795,1.349c0.654,0,1.148-0.18,1.48-0.542
				c0.332-0.361,0.498-0.853,0.498-1.475c0-0.613-0.197-1.175-0.592-1.684c-0.396-0.508-1.047-1.073-1.955-1.695
				c-0.79-0.546-1.389-1.069-1.796-1.569c-0.408-0.501-0.723-1.062-0.945-1.684c-0.223-0.622-0.334-1.345-0.334-2.168
				c0-1.58,0.439-2.833,1.317-3.757c0.878-0.925,2.057-1.387,3.536-1.387c1.412,0,2.77,0.396,4.072,1.186l-1.135,2.748
				c-0.402-0.235-0.824-0.445-1.266-0.63c-0.441-0.185-0.914-0.277-1.42-0.277c-0.555,0-0.98,0.183-1.279,0.548
				c-0.299,0.366-0.447,0.864-0.447,1.494c0,0.622,0.18,1.165,0.535,1.626c0.357,0.462,0.982,0.988,1.873,1.576
				c1.201,0.808,2.041,1.631,2.516,2.472C69.299,39.058,69.537,40.017,69.537,41.092z"/>
		</g>
	</g>
</g>
</svg>
